<svg width="100" height="100" viewBox="0 0 100 100" fill="none" xmlns="http://www.w3.org/2000/svg">
<path d="M50 100C77.6142 100 100 77.6142 100 50C100 22.3858 77.6142 0 50 0C22.3858 0 0 22.3858 0 50C0 77.6142 22.3858 100 50 100Z" fill="#93C8E7"/>
<path d="M99.2422 58.7105L55.2744 14.6988C52.3729 11.6256 48.4242 9.83594 44.1328 9.71094C43.9707 9.70703 43.8066 9.70312 43.6426 9.70312C34.4316 9.70312 26.9395 17.1973 26.9395 26.4062V35.1133L45.3619 53.5156L41.9883 63.7148L40.666 67.7129C39.0254 72.6738 39.8066 77.9746 42.8105 82.2617C43.5914 83.3762 44.4902 84.3693 45.483 85.232L59.3699 99.1197C79.6889 95.2668 95.6561 79.1227 99.2422 58.7105Z" fill="#75A9C8"/>
<path d="M62.7604 63.7148H66.8106V72.4219C66.8106 78.4004 61.9453 83.2656 55.9668 83.2656C55.8594 83.2656 55.752 83.2637 55.6465 83.2598C52.4141 83.166 49.4863 81.5762 47.6094 78.8984C45.6777 76.1445 45.1758 72.7383 46.2285 69.5527L48.1602 63.7148L49.3691 60.0606L57.6211 35.1133L58.9434 31.1152C60.584 26.1543 59.8027 20.8535 56.7988 16.5684C53.8496 12.3574 49.2324 9.85938 44.1328 9.71094C43.9707 9.70703 43.8066 9.70312 43.6426 9.70312C34.4316 9.70312 26.9395 17.1973 26.9395 26.4062V35.1133H32.7988V26.4062C32.7988 20.4277 37.6641 15.5625 43.6426 15.5625C43.75 15.5625 43.8574 15.5645 43.9629 15.5684C47.1953 15.6621 50.123 17.252 52 19.9297C53.9316 22.6836 54.4336 26.0898 53.3809 29.2754L51.4492 35.1133L50.2402 38.7676L41.9883 63.7148L40.666 67.7129C39.0254 72.6738 39.8066 77.9746 42.8105 82.2617C45.7598 86.4707 50.377 88.9688 55.4766 89.1172C55.6387 89.1211 55.8027 89.125 55.9668 89.125C65.1777 89.125 72.6699 81.6309 72.6699 72.4219V53.5156L62.7604 63.7148Z" fill="#F5F5F5"/>
</svg>
