<svg width="591" height="100" viewBox="0 0 591 100" fill="none" xmlns="http://www.w3.org/2000/svg">
<path d="M149.208 66.936C148.781 67.064 148.099 67.192 147.16 67.32C146.264 67.448 145.325 67.512 144.344 67.512C143.405 67.512 142.552 67.448 141.784 67.32C141.059 67.192 140.44 66.936 139.928 66.552C139.416 66.168 139.011 65.656 138.712 65.016C138.456 64.3333 138.328 63.4587 138.328 62.392V43.192C138.328 42.2107 138.499 41.3787 138.84 40.696C139.224 39.9707 139.757 39.3307 140.44 38.776C141.123 38.2213 141.955 37.7307 142.936 37.304C143.96 36.8347 145.048 36.4293 146.2 36.088C147.352 35.7467 148.547 35.4907 149.784 35.32C151.021 35.1067 152.259 35 153.496 35C155.544 35 157.165 35.4053 158.36 36.216C159.555 36.984 160.152 38.264 160.152 40.056C160.152 40.6533 160.067 41.2507 159.896 41.848C159.725 42.4027 159.512 42.9147 159.256 43.384C158.36 43.384 157.443 43.4267 156.504 43.512C155.565 43.5973 154.648 43.7253 153.752 43.896C152.856 44.0667 152.003 44.2587 151.192 44.472C150.424 44.6427 149.763 44.856 149.208 45.112V66.936ZM179.901 68.024C177.384 68.024 175.037 67.6827 172.861 67C170.728 66.2747 168.85 65.208 167.229 63.8C165.65 62.392 164.392 60.6213 163.453 58.488C162.557 56.3547 162.109 53.8587 162.109 51C162.109 48.184 162.557 45.7733 163.453 43.768C164.392 41.72 165.608 40.056 167.101 38.776C168.594 37.4533 170.301 36.4933 172.221 35.896C174.141 35.256 176.104 34.936 178.109 34.936C180.37 34.936 182.418 35.2773 184.253 35.96C186.13 36.6427 187.73 37.5813 189.053 38.776C190.418 39.9707 191.464 41.4 192.189 43.064C192.957 44.728 193.341 46.5413 193.341 48.504C193.341 49.9547 192.936 51.064 192.125 51.832C191.314 52.6 190.184 53.0907 188.733 53.304L172.925 55.672C173.394 57.08 174.354 58.1467 175.805 58.872C177.256 59.5547 178.92 59.896 180.797 59.896C182.546 59.896 184.189 59.6827 185.725 59.256C187.304 58.7867 188.584 58.2533 189.565 57.656C190.248 58.0827 190.824 58.68 191.293 59.448C191.762 60.216 191.997 61.0267 191.997 61.88C191.997 63.8 191.101 65.2293 189.309 66.168C187.944 66.8933 186.408 67.384 184.701 67.64C182.994 67.896 181.394 68.024 179.901 68.024ZM178.109 42.872C177.085 42.872 176.189 43.0427 175.421 43.384C174.696 43.7253 174.098 44.1733 173.629 44.728C173.16 45.24 172.797 45.8373 172.541 46.52C172.328 47.16 172.2 47.8213 172.157 48.504L183.101 46.712C182.973 45.8587 182.504 45.0053 181.693 44.152C180.882 43.2987 179.688 42.872 178.109 42.872ZM211.89 60.088C212.615 60.088 213.405 60.024 214.258 59.896C215.154 59.7253 215.815 59.512 216.242 59.256V54.136L211.634 54.52C210.439 54.6053 209.458 54.8613 208.69 55.288C207.922 55.7147 207.538 56.3547 207.538 57.208C207.538 58.0613 207.858 58.7653 208.498 59.32C209.181 59.832 210.311 60.088 211.89 60.088ZM211.378 34.936C213.682 34.936 215.773 35.1707 217.65 35.64C219.57 36.1093 221.191 36.8347 222.514 37.816C223.879 38.7547 224.925 39.9707 225.65 41.464C226.375 42.9147 226.738 44.6427 226.738 46.648V60.984C226.738 62.0933 226.418 63.0107 225.778 63.736C225.181 64.4187 224.455 65.016 223.602 65.528C220.829 67.192 216.925 68.024 211.89 68.024C209.629 68.024 207.581 67.8107 205.746 67.384C203.954 66.9573 202.397 66.3173 201.074 65.464C199.794 64.6107 198.791 63.5227 198.066 62.2C197.383 60.8773 197.042 59.3413 197.042 57.592C197.042 54.648 197.917 52.3867 199.666 50.808C201.415 49.2293 204.125 48.248 207.794 47.864L216.178 46.968V46.52C216.178 45.2827 215.623 44.408 214.514 43.896C213.447 43.3413 211.89 43.064 209.842 43.064C208.221 43.064 206.642 43.2347 205.106 43.576C203.57 43.9173 202.183 44.344 200.946 44.856C200.391 44.472 199.922 43.896 199.538 43.128C199.154 42.3173 198.962 41.4853 198.962 40.632C198.962 39.5227 199.218 38.648 199.73 38.008C200.285 37.3253 201.117 36.7493 202.226 36.28C203.463 35.8107 204.914 35.4693 206.578 35.256C208.285 35.0427 209.885 34.936 211.378 34.936ZM250.927 43.512C249.86 43.512 248.836 43.6827 247.855 44.024C246.916 44.3653 246.084 44.8773 245.359 45.56C244.676 46.2 244.121 47.0107 243.695 47.992C243.268 48.9733 243.055 50.1253 243.055 51.448C243.055 54.0933 243.801 56.0773 245.295 57.4C246.831 58.7227 248.687 59.384 250.863 59.384C252.143 59.384 253.252 59.2347 254.191 58.936C255.129 58.6373 255.961 58.3173 256.687 57.976C257.54 58.5733 258.18 59.2347 258.607 59.96C259.033 60.6427 259.247 61.4747 259.247 62.456C259.247 64.2053 258.415 65.5707 256.751 66.552C255.087 67.4907 252.783 67.96 249.839 67.96C247.151 67.96 244.719 67.576 242.543 66.808C240.367 65.9973 238.489 64.888 236.911 63.48C235.375 62.0293 234.18 60.3013 233.327 58.296C232.473 56.2907 232.047 54.072 232.047 51.64C232.047 48.824 232.495 46.3707 233.391 44.28C234.329 42.1467 235.588 40.3973 237.167 39.032C238.745 37.6667 240.559 36.6427 242.607 35.96C244.697 35.2773 246.895 34.936 249.199 34.936C252.271 34.936 254.639 35.4907 256.303 36.6C257.967 37.7093 258.799 39.1387 258.799 40.888C258.799 41.6987 258.607 42.4667 258.223 43.192C257.839 43.8747 257.391 44.472 256.879 44.984C256.153 44.6427 255.279 44.3227 254.255 44.024C253.231 43.6827 252.121 43.512 250.927 43.512ZM275.583 56.312C275.583 57.4213 275.924 58.2107 276.607 58.68C277.332 59.1493 278.335 59.384 279.615 59.384C280.255 59.384 280.916 59.3413 281.599 59.256C282.282 59.128 282.879 58.9787 283.391 58.808C283.775 59.2773 284.095 59.8107 284.351 60.408C284.65 60.9627 284.799 61.6453 284.799 62.456C284.799 64.0773 284.18 65.4 282.943 66.424C281.748 67.448 279.615 67.96 276.543 67.96C272.788 67.96 269.887 67.1067 267.839 65.4C265.834 63.6933 264.831 60.92 264.831 57.08V29.688C265.3 29.56 265.962 29.432 266.815 29.304C267.711 29.1333 268.65 29.048 269.631 29.048C271.508 29.048 272.959 29.3893 273.983 30.072C275.05 30.712 275.583 32.0987 275.583 34.232V38.328H283.967C284.223 38.7973 284.458 39.3947 284.671 40.12C284.927 40.8027 285.055 41.5707 285.055 42.424C285.055 43.9173 284.714 45.0053 284.031 45.688C283.391 46.328 282.516 46.648 281.407 46.648H275.583V56.312ZM290.136 55.096C289.837 54.6267 289.56 54.008 289.304 53.24C289.048 52.472 288.92 51.6613 288.92 50.808C288.92 49.2293 289.283 48.0987 290.008 47.416C290.733 46.6907 291.672 46.328 292.824 46.328H306.52C306.776 46.7973 307.032 47.416 307.288 48.184C307.587 48.952 307.736 49.7627 307.736 50.616C307.736 52.1947 307.373 53.3467 306.648 54.072C305.923 54.7547 304.984 55.096 303.832 55.096H290.136ZM343.673 66.936C343.246 67.064 342.564 67.192 341.625 67.32C340.729 67.448 339.79 67.512 338.809 67.512C337.87 67.512 337.017 67.448 336.249 67.32C335.524 67.192 334.905 66.936 334.393 66.552C333.881 66.168 333.476 65.656 333.177 65.016C332.921 64.3333 332.793 63.4587 332.793 62.392V48.184C332.793 46.4347 332.345 45.2187 331.449 44.536C330.596 43.8107 329.529 43.448 328.249 43.448C327.396 43.448 326.585 43.5547 325.817 43.768C325.049 43.9813 324.43 44.2373 323.961 44.536V66.936C323.534 67.064 322.852 67.192 321.913 67.32C321.017 67.448 320.078 67.512 319.097 67.512C318.158 67.512 317.305 67.448 316.537 67.32C315.812 67.192 315.193 66.936 314.681 66.552C314.169 66.168 313.764 65.656 313.465 65.016C313.209 64.3333 313.081 63.4587 313.081 62.392V25.272C313.55 25.1867 314.233 25.08 315.129 24.952C316.068 24.7813 317.006 24.696 317.945 24.696C318.884 24.696 319.716 24.76 320.441 24.888C321.209 25.016 321.849 25.272 322.361 25.656C322.873 26.04 323.257 26.5733 323.513 27.256C323.812 27.896 323.961 28.7493 323.961 29.816V36.088C324.516 35.8747 325.348 35.64 326.457 35.384C327.609 35.0853 328.868 34.936 330.233 34.936C334.457 34.936 337.742 36.0027 340.089 38.136C342.478 40.2267 343.673 43.3627 343.673 47.544V66.936ZM382.583 51.448C382.583 54.0933 382.177 56.4613 381.367 58.552C380.556 60.6 379.404 62.328 377.911 63.736C376.46 65.144 374.711 66.2107 372.663 66.936C370.615 67.6613 368.332 68.024 365.815 68.024C363.297 68.024 361.015 67.64 358.967 66.872C356.919 66.104 355.148 65.016 353.655 63.608C352.204 62.1573 351.073 60.408 350.263 58.36C349.452 56.312 349.047 54.008 349.047 51.448C349.047 48.9307 349.452 46.648 350.263 44.6C351.073 42.552 352.204 40.824 353.655 39.416C355.148 37.9653 356.919 36.856 358.967 36.088C361.015 35.32 363.297 34.936 365.815 34.936C368.332 34.936 370.615 35.3413 372.663 36.152C374.711 36.92 376.46 38.0293 377.911 39.48C379.404 40.888 380.556 42.616 381.367 44.664C382.177 46.712 382.583 48.9733 382.583 51.448ZM360.183 51.448C360.183 54.0507 360.673 56.056 361.655 57.464C362.679 58.8293 364.087 59.512 365.878 59.512C367.671 59.512 369.036 58.808 369.975 57.4C370.956 55.992 371.447 54.008 371.447 51.448C371.447 48.888 370.956 46.9253 369.975 45.56C368.993 44.152 367.607 43.448 365.815 43.448C364.023 43.448 362.636 44.152 361.655 45.56C360.673 46.9253 360.183 48.888 360.183 51.448ZM420.083 51.448C420.083 54.0933 419.677 56.4613 418.867 58.552C418.056 60.6 416.904 62.328 415.411 63.736C413.96 65.144 412.211 66.2107 410.163 66.936C408.115 67.6613 405.832 68.024 403.315 68.024C400.797 68.024 398.515 67.64 396.467 66.872C394.419 66.104 392.648 65.016 391.155 63.608C389.704 62.1573 388.573 60.408 387.763 58.36C386.952 56.312 386.547 54.008 386.547 51.448C386.547 48.9307 386.952 46.648 387.763 44.6C388.573 42.552 389.704 40.824 391.155 39.416C392.648 37.9653 394.419 36.856 396.467 36.088C398.515 35.32 400.797 34.936 403.315 34.936C405.832 34.936 408.115 35.3413 410.163 36.152C412.211 36.92 413.96 38.0293 415.411 39.48C416.904 40.888 418.056 42.616 418.867 44.664C419.677 46.712 420.083 48.9733 420.083 51.448ZM397.683 51.448C397.683 54.0507 398.173 56.056 399.155 57.464C400.179 58.8293 401.587 59.512 403.378 59.512C405.171 59.512 406.536 58.808 407.475 57.4C408.456 55.992 408.947 54.008 408.947 51.448C408.947 48.888 408.456 46.9253 407.475 45.56C406.493 44.152 405.107 43.448 403.315 43.448C401.523 43.448 400.136 44.152 399.155 45.56C398.173 46.9253 397.683 48.888 397.683 51.448ZM455.791 61.368C455.577 63.3733 454.98 64.9093 453.999 65.976C453.06 67.0427 451.673 67.576 449.839 67.576C448.473 67.576 447.257 67.256 446.191 66.616C445.124 65.9333 443.972 64.8027 442.735 63.224L436.399 55.288V66.936C435.929 67.0213 435.225 67.128 434.287 67.256C433.391 67.4267 432.473 67.512 431.535 67.512C430.596 67.512 429.743 67.448 428.975 67.32C428.249 67.192 427.631 66.936 427.119 66.552C426.607 66.168 426.201 65.656 425.903 65.016C425.647 64.3333 425.519 63.4587 425.519 62.392V25.336C425.988 25.208 426.671 25.08 427.567 24.952C428.505 24.7813 429.444 24.696 430.383 24.696C431.321 24.696 432.153 24.76 432.879 24.888C433.647 25.016 434.287 25.272 434.799 25.656C435.311 26.04 435.695 26.5733 435.951 27.256C436.249 27.896 436.399 28.7493 436.399 29.816V46.712L447.407 35.448C449.625 35.448 451.396 35.9387 452.719 36.92C454.084 37.9013 454.767 39.1387 454.767 40.632C454.767 41.272 454.66 41.8693 454.447 42.424C454.233 42.936 453.892 43.4693 453.423 44.024C452.996 44.5787 452.42 45.176 451.695 45.816C451.012 46.4133 450.201 47.1173 449.263 47.928L445.551 51.128L455.791 61.368ZM486.381 57.72C486.381 60.9627 485.165 63.5013 482.733 65.336C480.301 67.1707 476.717 68.088 471.981 68.088C470.189 68.088 468.525 67.96 466.989 67.704C465.453 67.448 464.13 67.064 463.021 66.552C461.954 65.9973 461.101 65.3147 460.461 64.504C459.863 63.6933 459.565 62.7333 459.565 61.624C459.565 60.6 459.778 59.7467 460.205 59.064C460.631 58.3387 461.143 57.7413 461.741 57.272C462.978 57.9547 464.386 58.5733 465.965 59.128C467.586 59.64 469.442 59.896 471.533 59.896C472.855 59.896 473.858 59.704 474.541 59.32C475.266 58.936 475.628 58.424 475.628 57.784C475.628 57.1867 475.373 56.7173 474.861 56.376C474.349 56.0347 473.495 55.7573 472.301 55.544L470.381 55.16C466.669 54.4347 463.895 53.304 462.061 51.768C460.269 50.1893 459.373 47.9493 459.373 45.048C459.373 43.4693 459.714 42.04 460.397 40.76C461.079 39.48 462.039 38.4133 463.277 37.56C464.514 36.7067 465.986 36.0453 467.693 35.576C469.442 35.1067 471.362 34.872 473.453 34.872C475.031 34.872 476.503 35 477.869 35.256C479.277 35.4693 480.493 35.8107 481.517 36.28C482.541 36.7493 483.351 37.368 483.949 38.136C484.546 38.8613 484.845 39.736 484.845 40.76C484.845 41.7413 484.653 42.5947 484.269 43.32C483.927 44.0027 483.479 44.5787 482.925 45.048C482.583 44.8347 482.071 44.6213 481.389 44.408C480.706 44.152 479.959 43.9387 479.149 43.768C478.338 43.5547 477.506 43.384 476.653 43.256C475.842 43.128 475.095 43.064 474.413 43.064C473.005 43.064 471.917 43.2347 471.149 43.576C470.381 43.8747 469.997 44.3653 469.997 45.048C469.997 45.5173 470.21 45.9013 470.637 46.2C471.063 46.4987 471.874 46.776 473.069 47.032L475.053 47.48C479.149 48.4187 482.05 49.72 483.757 51.384C485.506 53.0053 486.381 55.1173 486.381 57.72ZM491.449 55.096C491.15 54.6267 490.873 54.008 490.617 53.24C490.361 52.472 490.233 51.6613 490.233 50.808C490.233 49.2293 490.595 48.0987 491.321 47.416C492.046 46.6907 492.985 46.328 494.137 46.328H507.833C508.089 46.7973 508.345 47.416 508.601 48.184C508.899 48.952 509.049 49.7627 509.049 50.616C509.049 52.1947 508.686 53.3467 507.961 54.072C507.235 54.7547 506.297 55.096 505.145 55.096H491.449ZM544.666 61.368C544.452 63.3733 543.855 64.9093 542.874 65.976C541.935 67.0427 540.548 67.576 538.714 67.576C537.348 67.576 536.132 67.256 535.066 66.616C533.999 65.9333 532.847 64.8027 531.61 63.224L525.274 55.288V66.936C524.804 67.0213 524.1 67.128 523.162 67.256C522.266 67.4267 521.348 67.512 520.41 67.512C519.471 67.512 518.618 67.448 517.85 67.32C517.124 67.192 516.506 66.936 515.994 66.552C515.482 66.168 515.076 65.656 514.778 65.016C514.522 64.3333 514.394 63.4587 514.394 62.392V25.336C514.863 25.208 515.546 25.08 516.442 24.952C517.38 24.7813 518.319 24.696 519.258 24.696C520.196 24.696 521.028 24.76 521.754 24.888C522.522 25.016 523.162 25.272 523.674 25.656C524.186 26.04 524.57 26.5733 524.826 27.256C525.124 27.896 525.274 28.7493 525.274 29.816V46.712L536.282 35.448C538.5 35.448 540.271 35.9387 541.594 36.92C542.959 37.9013 543.642 39.1387 543.642 40.632C543.642 41.272 543.535 41.8693 543.322 42.424C543.108 42.936 542.767 43.4693 542.298 44.024C541.871 44.5787 541.295 45.176 540.57 45.816C539.887 46.4133 539.076 47.1173 538.138 47.928L534.426 51.128L544.666 61.368ZM549.51 27.256C549.51 25.6347 550.043 24.2693 551.11 23.16C552.219 22.0507 553.67 21.496 555.462 21.496C557.254 21.496 558.683 22.0507 559.75 23.16C560.859 24.2693 561.414 25.6347 561.414 27.256C561.414 28.8773 560.859 30.2427 559.75 31.352C558.683 32.4613 557.254 33.016 555.462 33.016C553.67 33.016 552.219 32.4613 551.11 31.352C550.043 30.2427 549.51 28.8773 549.51 27.256ZM560.902 66.936C560.432 67.0213 559.728 67.128 558.79 67.256C557.894 67.4267 556.976 67.512 556.038 67.512C555.099 67.512 554.246 67.448 553.478 67.32C552.752 67.192 552.134 66.936 551.622 66.552C551.11 66.168 550.704 65.656 550.406 65.016C550.15 64.3333 550.022 63.4587 550.022 62.392V36.344C550.491 36.2587 551.174 36.152 552.07 36.024C553.008 35.8533 553.947 35.768 554.885 35.768C555.824 35.768 556.656 35.832 557.382 35.96C558.15 36.088 558.79 36.344 559.302 36.728C559.814 37.112 560.198 37.6453 560.454 38.328C560.752 38.968 560.902 39.8213 560.902 40.888V66.936ZM578.708 56.312C578.708 57.4213 579.049 58.2107 579.732 58.68C580.457 59.1493 581.46 59.384 582.74 59.384C583.38 59.384 584.041 59.3413 584.724 59.256C585.407 59.128 586.004 58.9787 586.516 58.808C586.9 59.2773 587.22 59.8107 587.476 60.408C587.775 60.9627 587.924 61.6453 587.924 62.456C587.924 64.0773 587.305 65.4 586.068 66.424C584.873 67.448 582.74 67.96 579.668 67.96C575.913 67.96 573.012 67.1067 570.964 65.4C568.959 63.6933 567.956 60.92 567.956 57.08V29.688C568.425 29.56 569.087 29.432 569.94 29.304C570.836 29.1333 571.775 29.048 572.756 29.048C574.633 29.048 576.084 29.3893 577.108 30.072C578.175 30.712 578.708 32.0987 578.708 34.232V38.328H587.092C587.348 38.7973 587.583 39.3947 587.796 40.12C588.052 40.8027 588.18 41.5707 588.18 42.424C588.18 43.9173 587.839 45.0053 587.156 45.688C586.516 46.328 585.641 46.648 584.532 46.648H578.708V56.312Z" fill="#74A9C8"/>
<path d="M50 100C77.6142 100 100 77.6142 100 50C100 22.3858 77.6142 0 50 0C22.3858 0 0 22.3858 0 50C0 77.6142 22.3858 100 50 100Z" fill="#93C8E7"/>
<path d="M99.2422 58.7105L55.2744 14.6988C52.3729 11.6256 48.4242 9.83594 44.1328 9.71094C43.9707 9.70703 43.8066 9.70312 43.6426 9.70312C34.4316 9.70312 26.9395 17.1973 26.9395 26.4062V35.1133L45.3619 53.5156L41.9883 63.7148L40.666 67.7129C39.0254 72.6738 39.8066 77.9746 42.8105 82.2617C43.5914 83.3762 44.4902 84.3693 45.483 85.232L59.3699 99.1197C79.6889 95.2668 95.6561 79.1227 99.2422 58.7105Z" fill="#75A9C8"/>
<path d="M62.7604 63.7148H66.8106V72.4219C66.8106 78.4004 61.9453 83.2656 55.9668 83.2656C55.8594 83.2656 55.752 83.2637 55.6465 83.2598C52.4141 83.166 49.4863 81.5762 47.6094 78.8984C45.6777 76.1445 45.1758 72.7383 46.2285 69.5527L48.1602 63.7148L49.3691 60.0606L57.6211 35.1133L58.9434 31.1152C60.584 26.1543 59.8027 20.8535 56.7988 16.5684C53.8496 12.3574 49.2324 9.85938 44.1328 9.71094C43.9707 9.70703 43.8066 9.70312 43.6426 9.70312C34.4316 9.70312 26.9395 17.1973 26.9395 26.4062V35.1133H32.7988V26.4062C32.7988 20.4277 37.6641 15.5625 43.6426 15.5625C43.75 15.5625 43.8574 15.5645 43.9629 15.5684C47.1953 15.6621 50.123 17.252 52 19.9297C53.9316 22.6836 54.4336 26.0898 53.3809 29.2754L51.4492 35.1133L50.2402 38.7676L41.9883 63.7148L40.666 67.7129C39.0254 72.6738 39.8066 77.9746 42.8105 82.2617C45.7598 86.4707 50.377 88.9688 55.4766 89.1172C55.6387 89.1211 55.8027 89.125 55.9668 89.125C65.1777 89.125 72.6699 81.6309 72.6699 72.4219V53.5156L62.7604 63.7148Z" fill="#F5F5F5"/>
</svg>
